<?xml version="1.0" encoding="utf-8" standalone="yes"?>
<!DOCTYPE svg PUBLIC "-//W3C//DTD SVG 1.1//EN" "http://www.w3.org/Graphics/SVG/1.1/DTD/svg11.dtd">
<svg width="924" height="648" viewBox="0 0 924 648" style="fill:none;stroke:none;fill-rule:evenodd;clip-rule:evenodd;stroke-linecap:round;stroke-linejoin:round;stroke-miterlimit:1.5;" version="1.1" xmlns="http://www.w3.org/2000/svg" xmlns:xlink="http://www.w3.org/1999/xlink"><style id="fontImports">@import url("https://fonts.googleapis.com/css2?family=Roboto:wght@400;700&amp;display=block");</style><g id="items" style="isolation: isolate"><g id="blend" style="mix-blend-mode:normal"><g id="g-root-0.cu_sy_qun9pk1if2rr8-fill" data-item-order="999782634" data-item-id="0.cu_sy_qun9pk1if2rr8" data-item-class="Part Indexed_0 Fill Stroke ColorFillBlack ColorStrokeBlack" data-item-index="0" data-renderer-id="0" transform="translate(227.50692749023438, 182.1943359375)"><g id="0.cu_sy_qun9pk1if2rr8-fill" stroke="none" fill="#666666"><g><path d="M 154.905101 14.479068C 149.987101 20.189768 144.493101 24.055668 144.493101 24.055668C 144.493101 24.055668 141.205101 21.742168 137.439101 18.050868C 130.245101 20.088968 125.635101 22.482568 124.419101 25.194968C 119.769101 35.564968 156.299101 43.094968 227.249101 45.784968C 268.169101 47.334968 304.789101 51.054968 306.679101 59.344968C 308.679101 68.144968 266.759101 72.505268 221.019101 73.805268C 128.749101 76.427668 94.824001 89.305268 92.299201 104.034968C 89.774301 118.765168 106.249301 136.465168 219.919101 141.805168C 276.499101 144.463168 326.669101 153.225168 329.119101 165.015168C 333.669101 178.225168 294.249101 189.018168 221.019101 191.865168C 161.939101 194.162168 116.605201 199.806168 83.899601 208.325168C 86.824001 213.573168 88.492001 219.629168 88.492001 226.079168L 88.493101 226.079168C 88.493101 252.618168 52.493101 277.806168 52.493101 277.806168C 52.493101 277.806168 31.254701 262.946168 21.403701 244.028168C 19.831601 246.980168 18.766901 250.037168 18.199201 253.195168C 10.000001 298.805168 73.493101 326.805168 214.969101 339.905168C 292.458101 347.080168 366.649101 362.805168 373.749101 393.975168C 379.418101 418.867168 352.733101 438.904168 304.493101 451.755168L 447.593101 451.755168C 463.764101 433.863168 470.496101 413.649168 466.250101 391.945168C 463.738101 379.109168 458.292101 367.395168 449.209101 356.861168C 437.200101 371.582168 422.493101 381.805168 422.493101 381.805168C 422.493101 381.805168 380.493101 352.611168 380.493101 321.849168L 380.494101 321.849168C 380.494101 320.352168 380.572101 318.872168 380.725101 317.415168C 342.203101 305.278168 288.842101 297.159168 216.699101 293.395168C 137.549101 289.265168 84.526201 274.525168 87.609201 255.165168C 90.692201 235.805168 132.689101 223.305168 219.919101 217.785168C 340.979101 210.124168 385.391101 191.865168 381.009101 164.995168C 377.472101 143.305168 337.493101 126.305168 223.969101 122.715168C 152.770101 120.463168 129.679101 113.205168 132.689101 104.024968C 135.679101 95.214968 176.089101 88.744968 225.499101 86.824968C 307.559101 83.634968 345.849101 72.744968 340.979101 59.344968C 340.005101 56.664768 337.560101 54.207868 333.567101 51.975568C 329.042101 56.854668 324.493101 60.055668 324.493101 60.055668C 324.493101 60.055668 314.812101 53.243968 309.650101 44.347768C 291.087101 40.633268 264.053101 38.080468 227.639101 36.704968C 185.999101 35.134968 156.859101 32.014968 158.989101 25.194968C 161.014101 18.731468 192.051101 10.044268 228.342101 10.000168C 200.236101 10.018868 174.018101 11.590668 154.905101 14.479068Z"></path></g></g></g><g id="g-root-1.cu_sy_hz09go1if2sjx-fill" data-item-order="999782636" data-item-id="1.cu_sy_hz09go1if2sjx" data-item-class="Part Indexed Indexed_1 Fill Stroke" data-item-index="1" data-renderer-id="0" transform="translate(598, 452)"><g id="1.cu_sy_hz09go1if2sjx-fill" stroke="none" fill="#4682e3"><g><path d="M 10.0012 52.0439C 10.0012 28.8235 28.7764 10 51.9373 10L 52.0627 10C 75.2236 10 93.9988 28.8235 93.9988 52.0439L 94 52.0439C 94 82.8058 52 112 52 112C 52 112 10 82.8058 10 52.0439L 10.0012 52.0439Z"></path></g></g></g><g id="g-root-2.cu_sy_hz09go1if2sjy-fill" data-item-order="999782638" data-item-id="2.cu_sy_hz09go1if2sjy" data-item-class="Part Indexed Fill Stroke" data-item-index="2" data-renderer-id="0" transform="translate(234, 362)"><g id="2.cu_sy_hz09go1if2sjy-fill" stroke="none" fill="#3bc482"><g><path d="M 10.0011 46.2732C 10.0011 26.2399 26.0941 10 45.9463 10L 46.0537 10C 65.9059 10 81.9989 26.2399 81.9989 46.2732L 82 46.2732C 82 72.8129 46 98 46 98C 46 98 10 72.8129 10 46.2732L 10.0011 46.2732Z"></path></g></g></g><g id="g-root-3.cu_sy_dj6rc81if2tc7-fill" data-item-order="999782640" data-item-id="3.cu_sy_dj6rc81if2tc7" data-item-class="Part Indexed Fill Stroke" data-item-index="3" data-renderer-id="0" transform="translate(524, 188)"><g id="3.cu_sy_dj6rc81if2tc7-fill" stroke="none" fill="#93c131"><g><path d="M 10.0005 28.2396C 10.0005 18.1661 18.047 10 27.9731 10L 28.0269 10C 37.953 10 45.9995 18.1661 45.9995 28.2396L 46 28.2396C 46 41.5849 28 54.25 28 54.25C 28 54.25 10 41.5849 10 28.2396L 10.0005 28.2396Z"></path></g></g></g><g id="g-root-4.cu_sy_93d97s1if2u4g-fill" data-item-order="999782642" data-item-id="4.cu_sy_93d97s1if2u4g" data-item-class="Part Indexed Fill Stroke" data-item-index="4" data-renderer-id="0" transform="translate(344, 152)"><g id="4.cu_sy_93d97s1if2u4g-fill" stroke="none" fill="#17b0e3"><g><path d="M 10.0005 28.2396C 10.0005 18.1661 18.047 10 27.9731 10L 28.0269 10C 37.953 10 45.9995 18.1661 45.9995 28.2396L 46 28.2396C 46 41.5849 28 54.25 28 54.25C 28 54.25 10 41.5849 10 28.2396L 10.0005 28.2396Z"></path></g></g></g><g id="g-root-tx_recruitm_145hazs1if2tc3-fill" data-item-order="1000000000" data-item-id="tx_recruitm_145hazs1if2tc3" data-item-class="Label Stroke Title ColorStrokeBlack" data-item-index="none" data-renderer-id="0" transform="translate(296, 2)"><g id="tx_recruitm_145hazs1if2tc3-fill" stroke="none" fill="#484848"><g><text style="font: 20px Roboto, sans-serif; white-space: pre;" font-weight="20px" font-size="Roboto," font-family="sans-serif"><tspan x="13.97" y="34" dominant-baseline="ideographic">Recruitment Process at BQI Tech</tspan></text></g></g></g><g id="g-root-tx_finalint_18lat481if2sju-fill" data-item-order="1000000000" data-item-id="tx_finalint_18lat481if2sju" data-item-class="Label Stroke Indexed" data-item-index="4" data-renderer-id="0" transform="translate(170, 74)"><g id="tx_finalint_18lat481if2sju-fill" stroke="none" fill="#17b0e3"><g><text style="font: bold 20px Roboto, sans-serif; white-space: pre;" font-weight="bold" font-size="20" font-family="Roboto, sans-serif"><tspan x="20.53" y="34" dominant-baseline="ideographic">Final Interview</tspan></text></g></g></g><g id="g-root-tx_practica_1hgxtd41if2rr5-fill" data-item-order="1000000000" data-item-id="tx_practica_1hgxtd41if2rr5" data-item-class="Label Stroke Indexed" data-item-index="3" data-renderer-id="0" transform="translate(590, 86)"><g id="tx_practica_1hgxtd41if2rr5-fill" stroke="none" fill="#93c131"><g><text style="font: bold 20px Roboto, sans-serif; white-space: pre;" font-weight="bold" font-size="20" font-family="Roboto, sans-serif"><tspan x="12" y="34" dominant-baseline="ideographic">Practical </tspan><tspan x="12" y="58" dominant-baseline="ideographic">Assessment</tspan></text></g></g></g><g id="g-root-tx_inperson_4masx41if2rym-fill" data-item-order="1000000000" data-item-id="tx_inperson_4masx41if2rym" data-item-class="Label Stroke Indexed ColorStrokeBlack" data-item-index="4" data-renderer-id="0" transform="translate(122, 110)"><g id="tx_inperson_4masx41if2rym-fill" stroke="none" fill="#484848"><g><text style="font: 20px Roboto, sans-serif; white-space: pre;" font-weight="20px" font-size="Roboto," font-family="sans-serif"><tspan x="31.58" y="34" dominant-baseline="ideographic">In-person interview </tspan><tspan x="14.75" y="58" dominant-baseline="ideographic">with leadership team</tspan></text></g></g></g><g id="g-root-2_zko06g1ifjor0-fill" data-item-order="1000000000" data-item-id="2_zko06g1ifjor0" data-item-class="Icon Stroke Indexed InsideFill InsideColorFill" data-item-index="4" data-renderer-id="0" transform="translate(350, 158)"></g><g id="g-root-tx_technica_dhbc2w1if2ubp-fill" data-item-order="1000000000" data-item-id="tx_technica_dhbc2w1if2ubp" data-item-class="Label Stroke Indexed ColorStrokeBlack" data-item-index="3" data-renderer-id="0" transform="translate(590, 146)"><g id="tx_technica_dhbc2w1if2ubp-fill" stroke="none" fill="#484848"><g><text style="font: 20px Roboto, sans-serif; white-space: pre;" font-weight="20px" font-size="Roboto," font-family="sans-serif"><tspan x="12" y="34" dominant-baseline="ideographic">Technical exercise to </tspan><tspan x="12" y="58" dominant-baseline="ideographic">test job-related skills</tspan></text></g></g></g><g id="g-root-3_hs51ig1ifl348-fill" data-item-order="1000000000" data-item-id="3_hs51ig1ifl348" data-item-class="Icon Stroke Indexed InsideFill InsideColorFill" data-item-index="3" data-renderer-id="0" transform="translate(530, 194)"></g><g id="g-root-tx_1ststage_1lw4ueg1if2u4o-fill" data-item-order="1000000000" data-item-id="tx_1ststage_1lw4ueg1if2u4o" data-item-class="Label Stroke Indexed" data-item-index="2" data-renderer-id="0" transform="translate(14, 302)"><g id="tx_1ststage_1lw4ueg1if2u4o-fill" stroke="none" fill="#3bc482"><g><text style="font: bold 20px Roboto, sans-serif; white-space: pre;" font-weight="bold" font-size="20" font-family="Roboto, sans-serif"><tspan x="14.53" y="34" dominant-baseline="ideographic">1st Stage Interview</tspan></text></g></g></g><g id="g-root-tx_intervie_qsrug81if2sqs-fill" data-item-order="1000000000" data-item-id="tx_intervie_qsrug81if2sqs" data-item-class="Label Stroke Indexed ColorStrokeBlack" data-item-index="2" data-renderer-id="0" transform="translate(2, 338)"><g id="tx_intervie_qsrug81if2sqs-fill" stroke="none" fill="#484848"><g><text style="font: 20px Roboto, sans-serif; white-space: pre;" font-weight="20px" font-size="Roboto," font-family="sans-serif"><tspan x="16.86" y="34" dominant-baseline="ideographic">Interview to evaluate </tspan><tspan x="116.53" y="58" dominant-baseline="ideographic">skills and </tspan><tspan x="93.05" y="82" dominant-baseline="ideographic">experiences</tspan></text></g></g></g><g id="g-root-woma_18gb0fc1ifjnyb-fill" data-item-order="1000000000" data-item-id="woma_18gb0fc1ifjnyb" data-item-class="Icon Stroke Indexed InsideFill InsideColorFill" data-item-index="2" data-renderer-id="0" transform="translate(246, 374)"></g><g id="g-root-tx_hrscreen_1qbyciw1if2tcf-fill" data-item-order="1000000000" data-item-id="tx_hrscreen_1qbyciw1if2tcf" data-item-class="Label Stroke Indexed Indexed_1" data-item-index="1" data-renderer-id="0" transform="translate(722, 398)"><g id="tx_hrscreen_1qbyciw1if2tcf-fill" stroke="none" fill="#4682e3"><g><text style="font: bold 20px Roboto, sans-serif; white-space: pre;" font-weight="bold" font-size="20" font-family="Roboto, sans-serif"><tspan x="12" y="34" dominant-baseline="ideographic">HR Screening</tspan></text></g></g></g><g id="g-root-tx_initialp_143lvqg1if2ubn-fill" data-item-order="1000000000" data-item-id="tx_initialp_143lvqg1if2ubn" data-item-class="Label Stroke Indexed Indexed_1 ColorStrokeBlack" data-item-index="1" data-renderer-id="0" transform="translate(722, 434)"><g id="tx_initialp_143lvqg1if2ubn-fill" stroke="none" fill="#484848"><g><text style="font: 20px Roboto, sans-serif; white-space: pre;" font-weight="20px" font-size="Roboto," font-family="sans-serif"><tspan x="12" y="34" dominant-baseline="ideographic">Initial phone </tspan><tspan x="12" y="58" dominant-baseline="ideographic">interview to assess </tspan><tspan x="12" y="82" dominant-baseline="ideographic">candidates</tspan></text></g></g></g><g id="g-root-inte_1upwfe01ifjp59-fill" data-item-order="1000000000" data-item-id="inte_1upwfe01ifjp59" data-item-class="Icon Stroke Indexed Indexed_1 InsideFill InsideColorFill" data-item-index="1" data-renderer-id="0" transform="translate(614, 470)"></g><g id="g-root-0.cu_sy_qun9pk1if2rr8-stroke" data-item-order="999782634" data-item-id="0.cu_sy_qun9pk1if2rr8" data-item-class="Part Indexed_0 Fill Stroke ColorFillBlack ColorStrokeBlack" data-item-index="0" data-renderer-id="0" transform="translate(227.50692749023438, 182.1943359375)"><g id="0.cu_sy_qun9pk1if2rr8-stroke" fill="none" stroke-linecap="round" stroke-linejoin="round" stroke-miterlimit="4" stroke="#ffffff" stroke-width="2"><g><path d="M 304.493073 451.754761C 352.732697 438.904663 379.418488 418.867004 373.748871 393.974976C 366.649384 362.805176 292.458161 347.079712 214.969391 339.905029C 73.493073 326.805664 10.000062 298.805206 18.199158 253.195007C 18.767182 250.0354 19.832673 246.976898 21.405884 244.023895M 447.593354 451.754761C 463.764374 433.863525 470.496552 413.648926 466.249543 391.945007C 463.733552 379.086914 458.272675 367.353638 449.160981 356.805664M 137.493073 18.035706C 130.267884 20.077194 125.638367 22.475906 124.419159 25.195007C 119.769166 35.565002 156.299378 43.095001 227.24936 45.785004C 268.169373 47.334991 304.789338 51.054993 306.679352 59.345001C 308.679352 68.144989 266.759369 72.505188 221.019379 73.805206C 128.749268 76.427704 94.824067 89.305206 92.299164 104.035004C 89.774384 118.764801 106.249268 136.464905 219.919373 141.805206C 276.499299 144.463379 326.669343 153.225006 329.119355 165.015015C 333.669343 178.225006 294.249299 189.018005 221.019379 191.86499C 161.995575 194.159698 116.691559 199.795105 83.993073 208.300781M 154.756775 14.501495C 173.996888 11.581406 200.479371 10 228.849366 10L 228.619355 10C 192.209382 10 161.019166 18.714996 158.989167 25.195007C 156.859162 32.014999 185.99936 35.134994 227.639374 36.705002C 264.08487 38.081604 291.133942 40.637695 309.697541 44.357391M 333.493073 51.934509C 337.530304 54.177704 339.999177 56.6483 340.979401 59.345001C 345.849396 72.744995 307.559357 83.63501 225.49936 86.825012C 176.089386 88.744995 135.679169 95.214996 132.689179 104.024994C 129.679169 113.205017 152.770569 120.463013 223.969391 122.714996C 337.493073 126.305695 377.472382 143.305206 381.009369 164.994995C 385.391083 191.86499 340.979401 210.123901 219.919373 217.785004C 132.689362 223.305206 90.69217 235.805206 87.609162 255.164978C 84.526185 274.524811 137.549378 289.265015 216.699372 293.394989C 288.826752 297.1586 342.18039 305.274902 380.700104 317.407104M 419.828522 418.465454C 418.188569 422.595459 415.848542 426.725464 412.858552 430.735474M 421.748566 394.085449C 422.698517 398.085449 423.028534 402.145386 422.728547 406.175415M 409.258576 371.325439C 412.428559 374.905395 415.098542 378.635437 417.178559 382.405395M 384.518525 352.495422C 389.528534 355.505432 394.158539 358.695435 398.258576 361.975464M 350.13852 337.465454C 356.538544 339.79541 362.668549 342.31543 368.368561 344.975464M 308.728547 325.745422C 316.078522 327.31543 323.288544 329.095459 330.158539 331.04541M 262.658539 318.805786C 270.588532 319.585815 278.478547 320.445435 286.138581 321.615417M 214.238556 314.805817C 214.238556 314.805817 230.49643 315.706818 238.618561 316.085815M 165.588532 310.845428C 173.358552 311.665436 181.428559 312.30542 189.568543 312.735443M 122.978547 303.685425C 129.598542 305.215424 136.628541 306.605438 143.878541 307.795441M 87.238556 293.80542C 92.13855 295.865417 97.538544 297.835419 103.308533 299.645416M 63.858552 280.385437C 66.718537 282.765442 70.13855 285.105438 74.028534 287.335419M 118.768555 215.735413C 113.338532 217.105408 108.108552 218.605408 103.208558 220.185425M 153.658539 208.925415C 147.518555 209.81543 141.468537 210.835449 135.668549 211.965424M 191.89853 205.115417C 185.368561 205.495422 178.838532 206.005432 172.488556 206.635437M 231.218537 203.185425L 211.608552 204.375427M 269.058564 200.835449C 263.028534 201.475433 256.768525 201.995422 250.468537 202.385437M 302.628571 195.695435C 297.548554 196.755432 292.14853 197.735413 286.578522 198.585449M 330.178559 188.31543C 326.448517 189.695435 321.328522 191.015442 316.918549 192.245422M 346.858552 180.425415C 344.718537 181.985413 342.14853 183.535431 339.208527 185.005432M 354.738556 170.81543C 354.248566 172.435425 353.348542 174.06543 352.048554 175.665436M 352.928559 161.245422C 353.768525 162.475433 354.38852 163.735413 354.758576 164.995422C 354.858552 165.325439 354.938569 165.655426 354.998566 165.975433M 342.248566 152.375427C 344.708527 153.765442 346.858552 155.215424 348.63852 156.685425M 323.89853 144.735413C 327.508576 145.885437 330.88852 147.105408 333.938569 148.375427M 299.478547 138.695435C 303.958527 139.545441 308.288544 140.485413 312.348542 141.495422M 270.658539 134.545441C 275.718537 135.06543 280.718537 135.685425 285.508576 136.375427M 239.158539 132.455444C 244.528534 132.625427 249.89853 132.885437 255.128541 133.235413M 206.508545 131.925415C 211.908539 132.115417 217.438569 132.205444 222.948548 132.215424M 175.178559 129.755432C 180.108552 130.285431 185.248566 130.735413 190.458527 131.095428M 148.178559 125.675415C 152.188538 126.495422 156.508545 127.255432 160.998536 127.935425M 127.558533 120.085419C 130.368561 121.115417 133.538544 122.105438 136.958558 123.035431M 114.728547 113.525421C 116.178559 114.675415 117.988556 115.80542 120.118561 116.895447M 110.308533 106.535431C 110.348542 107.705444 110.728547 108.895447 111.458558 110.045441M 114.058533 99.645447C 112.788544 100.755432 111.828553 101.895447 111.208558 103.045441M 125.268555 93.335419C 122.828553 94.31543 120.64856 95.345428 118.788544 96.395447M 142.818543 87.965424C 139.448548 88.765442 136.248536 89.615417 133.338532 90.505432M 165.308533 83.825439C 161.248536 84.395447 157.288544 85.045441 153.538544 85.725433M 191.248566 81.105438C 186.728547 81.435425 182.258545 81.825439 177.938569 82.275421M 219.098542 79.935425C 214.39853 79.995422 209.668549 80.125427 205.048554 80.325439M 246.848542 79.445435C 242.338532 79.645447 237.718537 79.775421 233.098542 79.845428M 272.758576 77.515442C 268.718537 77.955444 264.478547 78.335419 260.168549 78.655426M 294.788544 74.265442C 291.538544 74.905426 288.038544 75.495422 284.378571 76.035431M 311.288544 69.995422C 309.068512 70.765442 306.558564 71.525421 303.808564 72.235413M 321.168549 65.085419C 320.108552 65.935425 318.738556 66.785431 317.098542 67.595428M 323.958527 59.92543C 324.078522 60.785431 323.908539 61.655426 323.448517 62.505432M 309.538544 50.365433C 311.738556 51.06543 313.728547 51.805435 315.448517 52.56543M 293.848542 46.555435C 296.838532 47.115433 299.678559 47.715424 302.288544 48.355438M 274.038544 43.695435C 277.598542 44.085434 281.078522 44.525421 284.378571 44.995422M 251.38855 41.92543C 255.318543 42.125427 259.218537 42.375427 262.988556 42.665436M 227.288544 41.335434L 227.438569 41.335434C 231.448548 41.335434 235.478547 41.385437 239.428559 41.475433M 202.908539 40.725433C 206.838532 40.92543 210.88855 41.075424 214.958527 41.185425M 180.63855 38.955429C 184.068543 39.335434 187.678559 39.685425 191.38855 39.975433M 162.258545 36.185425C 164.918549 36.715424 167.808564 37.215424 170.868561 37.67543M 149.088532 32.685425C 150.788544 33.31543 152.768555 33.92543 154.958558 34.505432M 141.988556 28.745422C 142.63855 29.42543 143.568543 30.095428 144.748536 30.755432M 141.238556 24.665436C 141.13855 24.835434 141.058533 25.005432 140.988556 25.185425C 140.798554 25.685425 140.738556 26.195435 140.828553 26.705429M 157.298554 17.265427C 155.088532 17.805435 153.068543 18.365433 151.278534 18.945435M 172.618561 14.395431C 169.758545 14.81543 167.008545 15.265427 164.458558 15.735428M 191.358552 12.31543C 188.028534 12.585434 184.748566 12.905426 181.628541 13.255432M 401.758576 442.715454C 398.265534 445.827393 394.318635 448.889038 389.993073 451.840088"></path></g></g></g><g id="g-root-1.cu_sy_hz09go1if2sjx-stroke" data-item-order="999782636" data-item-id="1.cu_sy_hz09go1if2sjx" data-item-class="Part Indexed Indexed_1 Fill Stroke" data-item-index="1" data-renderer-id="0" transform="translate(598, 452)"><g id="1.cu_sy_hz09go1if2sjx-stroke" fill="none" stroke-linecap="round" stroke-linejoin="round" stroke-miterlimit="4" stroke="#ffffff" stroke-width="2"><g><path d="M 10.0012 52.0439C 10.0012 28.8235 28.7764 10 51.9373 10L 52.0627 10C 75.2236 10 93.9988 28.8235 93.9988 52.0439L 94 52.0439C 94 82.8058 52 112 52 112C 52 112 10 82.8058 10 52.0439L 10.0012 52.0439Z"></path></g></g></g><g id="g-root-2.cu_sy_hz09go1if2sjy-stroke" data-item-order="999782638" data-item-id="2.cu_sy_hz09go1if2sjy" data-item-class="Part Indexed Fill Stroke" data-item-index="2" data-renderer-id="0" transform="translate(234, 362)"><g id="2.cu_sy_hz09go1if2sjy-stroke" fill="none" stroke-linecap="round" stroke-linejoin="round" stroke-miterlimit="4" stroke="#ffffff" stroke-width="2"><g><path d="M 10.0011 46.2732C 10.0011 26.2399 26.0941 10 45.9463 10L 46.0537 10C 65.9059 10 81.9989 26.2399 81.9989 46.2732L 82 46.2732C 82 72.8129 46 98 46 98C 46 98 10 72.8129 10 46.2732L 10.0011 46.2732Z"></path></g></g></g><g id="g-root-3.cu_sy_dj6rc81if2tc7-stroke" data-item-order="999782640" data-item-id="3.cu_sy_dj6rc81if2tc7" data-item-class="Part Indexed Fill Stroke" data-item-index="3" data-renderer-id="0" transform="translate(524, 188)"><g id="3.cu_sy_dj6rc81if2tc7-stroke" fill="none" stroke-linecap="round" stroke-linejoin="round" stroke-miterlimit="4" stroke="#ffffff" stroke-width="2"><g><path d="M 10.0005 28.2396C 10.0005 18.1661 18.047 10 27.9731 10L 28.0269 10C 37.953 10 45.9995 18.1661 45.9995 28.2396L 46 28.2396C 46 41.5849 28 54.25 28 54.25C 28 54.25 10 41.5849 10 28.2396L 10.0005 28.2396Z"></path></g></g></g><g id="g-root-4.cu_sy_93d97s1if2u4g-stroke" data-item-order="999782642" data-item-id="4.cu_sy_93d97s1if2u4g" data-item-class="Part Indexed Fill Stroke" data-item-index="4" data-renderer-id="0" transform="translate(344, 152)"><g id="4.cu_sy_93d97s1if2u4g-stroke" fill="none" stroke-linecap="round" stroke-linejoin="round" stroke-miterlimit="4" stroke="#ffffff" stroke-width="2"><g><path d="M 10.0005 28.2396C 10.0005 18.1661 18.047 10 27.9731 10L 28.0269 10C 37.953 10 45.9995 18.1661 45.9995 28.2396L 46 28.2396C 46 41.5849 28 54.25 28 54.25C 28 54.25 10 41.5849 10 28.2396L 10.0005 28.2396Z"></path></g></g></g><g id="g-root-tx_recruitm_145hazs1if2tc3-stroke" data-item-order="1000000000" data-item-id="tx_recruitm_145hazs1if2tc3" data-item-class="Label Stroke Title ColorStrokeBlack" data-item-index="none" data-renderer-id="0" transform="translate(296, 2)"></g><g id="g-root-tx_finalint_18lat481if2sju-stroke" data-item-order="1000000000" data-item-id="tx_finalint_18lat481if2sju" data-item-class="Label Stroke Indexed" data-item-index="4" data-renderer-id="0" transform="translate(170, 74)"></g><g id="g-root-tx_practica_1hgxtd41if2rr5-stroke" data-item-order="1000000000" data-item-id="tx_practica_1hgxtd41if2rr5" data-item-class="Label Stroke Indexed" data-item-index="3" data-renderer-id="0" transform="translate(590, 86)"></g><g id="g-root-tx_inperson_4masx41if2rym-stroke" data-item-order="1000000000" data-item-id="tx_inperson_4masx41if2rym" data-item-class="Label Stroke Indexed ColorStrokeBlack" data-item-index="4" data-renderer-id="0" transform="translate(122, 110)"></g><g id="g-root-2_zko06g1ifjor0-stroke" data-item-order="1000000000" data-item-id="2_zko06g1ifjor0" data-item-class="Icon Stroke Indexed InsideFill InsideColorFill" data-item-index="4" data-renderer-id="0" transform="translate(350, 158)"><g id="2_zko06g1ifjor0-stroke" fill="none" stroke-linecap="round" stroke-linejoin="round" stroke-miterlimit="4" stroke="#ffffff" stroke-width="2"><g><path d="M 16.022 26C 15.896954 22.810645 18.381606 20.124051 21.571 20C 21.721 19.994 21.871 19.994 22.022 20C 25.210941 19.876076 27.896864 22.360107 28.022 25.549C 28.027 25.699 28.027 25.849 28.022 26ZM 18.022 14.5C 18.022 16.709139 19.812861 18.5 22.022 18.5C 24.231139 18.5 26.022 16.709139 26.022 14.5C 26.022 12.290861 24.231139 10.5 22.022 10.5C 19.812861 10.5 18.022 12.290861 18.022 14.5M 25.749 13.967C 25.101231 14.323654 24.372431 14.507232 23.633001 14.5C 21.773831 14.504222 20.071267 13.459467 19.233 11.8M 22.022 22L 22.022 23.5M 11 33.5L 16.5 28M 16.5 32L 16.5 28L 12.5 28M 33 33.5L 27.5 28M 27.5 32L 27.5 28L 31.5 28"></path></g></g></g><g id="g-root-tx_technica_dhbc2w1if2ubp-stroke" data-item-order="1000000000" data-item-id="tx_technica_dhbc2w1if2ubp" data-item-class="Label Stroke Indexed ColorStrokeBlack" data-item-index="3" data-renderer-id="0" transform="translate(590, 146)"></g><g id="g-root-3_hs51ig1ifl348-stroke" data-item-order="1000000000" data-item-id="3_hs51ig1ifl348" data-item-class="Icon Stroke Indexed InsideFill InsideColorFill" data-item-index="3" data-renderer-id="0" transform="translate(530, 194)"><g id="3_hs51ig1ifl348-stroke" fill="none" stroke-linecap="round" stroke-linejoin="round" stroke-miterlimit="4" stroke="#ffffff" stroke-width="2"><g><path d="M 15 33.504L 29 33.504M 21.5 31.504L 21.5 33.504M 10.5 27.504L 33.5 27.504M 33.5 16.5L 33.5 30C 33.500001 30.828428 32.828428 31.500001 32.000001 31.500001L 12 31.5C 11.171573 31.500001 10.5 30.828428 10.5 30.000001L 10.5 15C 10.5 14.171573 11.171573 13.5 12 13.5L 24.5 13.5M 14.5 16.496L 17.5 16.496L 17.5 19.496L 14.5 19.496ZM 14.5 21.996L 17.5 21.996L 17.5 24.996L 14.5 24.996ZM 26.439 20.272L 22.639 21.359L 23.725 17.559L 30.225 11.059C 30.979762 10.337849 32.172281 10.351425 32.910429 11.089573C 33.648576 11.82772 33.662153 13.020239 32.941001 13.775ZM 29.407 11.873L 32.123 14.589M 23.723 17.557L 26.439 20.272"></path></g></g></g><g id="g-root-tx_1ststage_1lw4ueg1if2u4o-stroke" data-item-order="1000000000" data-item-id="tx_1ststage_1lw4ueg1if2u4o" data-item-class="Label Stroke Indexed" data-item-index="2" data-renderer-id="0" transform="translate(14, 302)"></g><g id="g-root-tx_intervie_qsrug81if2sqs-stroke" data-item-order="1000000000" data-item-id="tx_intervie_qsrug81if2sqs" data-item-class="Label Stroke Indexed ColorStrokeBlack" data-item-index="2" data-renderer-id="0" transform="translate(2, 338)"></g><g id="g-root-woma_18gb0fc1ifjnyb-stroke" data-item-order="1000000000" data-item-id="woma_18gb0fc1ifjnyb" data-item-class="Icon Stroke Indexed InsideFill InsideColorFill" data-item-index="2" data-renderer-id="0" transform="translate(246, 374)"><g id="woma_18gb0fc1ifjnyb-stroke" fill="none" stroke-linecap="round" stroke-linejoin="round" stroke-miterlimit="4" stroke="#ffffff" stroke-width="2"><g><path d="M 35.024002 21.152C 35.024002 26.154594 39.079407 30.209999 44.082001 30.209999C 49.084595 30.209999 53.139999 26.154594 53.139999 21.152C 53.139999 16.149405 49.084595 12.094 44.082001 12.094C 39.079407 12.094 35.024002 16.149405 35.024002 21.152ZM 57.023998 34.094002L 50.528 27.6M 43.023998 56.094002L 57.023998 56.094002C 57.023926 52.254795 55.02219 48.693398 51.742565 46.69751C 48.462936 44.701626 44.37999 44.560059 40.970001 46.324001M 52.400002 36.091999C 52.223541 38.536762 50.686813 40.67437 48.425617 41.620407C 46.164421 42.566444 43.56332 42.160023 41.698494 40.569294C 39.833672 38.978561 39.02227 36.47406 39.599998 34.092003M 35.220001 39.290001C 34.102859 37.453415 33.546738 35.330414 33.619999 33.181999L 33.620003 30.684C 33.74728 27.531286 32.137871 24.562027 29.426781 22.947779C 26.715691 21.333529 23.33831 21.333529 20.62722 22.947779C 17.916132 24.562027 16.306721 27.531286 16.434 30.684002L 16.434 33.181999C 16.507263 35.330414 15.951139 37.453415 14.834 39.290001M 16.43 32.104C 19.73263 32.101048 22.871014 30.663231 25.030001 28.164001C 27.188334 30.664099 30.327139 32.102112 33.630001 32.104M 32.599998 32.057999C 32.41391 36.105759 29.078032 39.291798 25.026001 39.291798C 20.973969 39.291798 17.638088 36.105759 17.452 32.057999M 39.024002 56.094002C 39.024002 48.362015 32.755989 42.094002 25.024002 42.094002C 17.292015 42.094002 11.024 48.362015 11.024 56.094002ZM 32.104 44.014L 25.024 51.094002L 17.944 44.014"></path></g></g></g><g id="g-root-tx_hrscreen_1qbyciw1if2tcf-stroke" data-item-order="1000000000" data-item-id="tx_hrscreen_1qbyciw1if2tcf" data-item-class="Label Stroke Indexed Indexed_1" data-item-index="1" data-renderer-id="0" transform="translate(722, 398)"></g><g id="g-root-tx_initialp_143lvqg1if2ubn-stroke" data-item-order="1000000000" data-item-id="tx_initialp_143lvqg1if2ubn" data-item-class="Label Stroke Indexed Indexed_1 ColorStrokeBlack" data-item-index="1" data-renderer-id="0" transform="translate(722, 434)"></g><g id="g-root-inte_1upwfe01ifjp59-stroke" data-item-order="1000000000" data-item-id="inte_1upwfe01ifjp59" data-item-class="Icon Stroke Indexed Indexed_1 InsideFill InsideColorFill" data-item-index="1" data-renderer-id="0" transform="translate(614, 470)"><g id="inte_1upwfe01ifjp59-stroke" fill="none" stroke-linecap="round" stroke-linejoin="round" stroke-miterlimit="4" stroke="#ffffff" stroke-width="2"><g><path d="M 31.143251 48.623501L 28.681751 56.678501M 23.637249 56.678501L 37.825748 56.678501M 44.681499 46.002251C 44.681499 50.178764 48.067238 53.564503 52.243752 53.564503C 56.420265 53.564503 59.806004 50.178764 59.806004 46.002254C 59.806004 41.825737 56.420265 38.440002 52.243752 38.440002C 48.067238 38.440002 44.681499 41.825737 44.681499 46.002254M 62.598251 62.875C 60.294975 59.329872 56.354401 57.190834 52.126747 57.190834C 47.899097 57.190834 43.958523 59.329872 41.655251 62.875M 38.16325 48.623501L 15.35725 48.623501C 13.134558 48.584076 11.364142 46.751221 11.40175 44.528496L 11.40175 19.265499C 11.366654 17.044521 13.136343 15.214432 15.357249 15.175L 34.6735 15.175M 11.40175 40.766499L 38.16325 40.766499M 35.910999 40.766499C 34.141907 37.2024 30.506386 34.9482 26.527376 34.9482C 22.548365 34.9482 18.912844 37.2024 17.143751 40.766502M 20.129499 26.2225C 20.128483 29.75729 22.99371 32.623341 26.5285 32.623341C 30.063288 32.623341 32.928516 29.75729 32.927498 26.2225C 32.928516 22.687712 30.063288 19.821659 26.5285 19.821659C 22.99371 19.821659 20.128483 22.687712 20.129499 26.2225M 51.544003 11.125C 45.439751 11.125 40.48975 15.34825 40.48975 20.55925C 40.51041 22.171829 41.000656 23.743423 41.900501 25.081751C 41.120255 26.839281 40.0611 28.459164 38.764 29.87875C 41.56282 30.823893 44.624668 30.599161 47.255497 29.255499C 48.631672 29.747246 50.082615 29.996937 51.544003 29.993502C 57.650497 29.9935 62.598251 25.77025 62.598251 20.55925C 62.598251 15.34825 57.650497 11.125 51.544003 11.125ZM 46.290249 41.37175C 50.047844 44.568642 54.877495 46.222477 59.806 45.999996M 21.699999 22.375C 24.821045 25.031599 28.83304 26.406452 32.927502 26.2225"></path></g></g></g></g></g></svg>